<?xml version="1.0" encoding="UTF-8" standalone="no"?>
<!-- Generator: Adobe Illustrator 19.0.0, SVG Export Plug-In . SVG Version: 6.00 Build 0)  -->

<svg
   xmlns:dc="http://purl.org/dc/elements/1.1/"
   xmlns:cc="http://creativecommons.org/ns#"
   xmlns:rdf="http://www.w3.org/1999/02/22-rdf-syntax-ns#"
   xmlns:svg="http://www.w3.org/2000/svg"
   xmlns="http://www.w3.org/2000/svg"
   xmlns:sodipodi="http://sodipodi.sourceforge.net/DTD/sodipodi-0.dtd"
   xmlns:inkscape="http://www.inkscape.org/namespaces/inkscape"
   version="1.1"
   id="Layer_1"
   x="0px"
   y="0px"
   viewBox="0 0 512 512"
   style="enable-background:new 0 0 512 512;"
   xml:space="preserve"
   width="512px"
   height="512px"
   inkscape:version="0.91 r13725"
   sodipodi:docname="manual.svg"><metadata
     id="metadata69"><rdf:RDF><cc:Work
         rdf:about=""><dc:format>image/svg+xml</dc:format><dc:type
           rdf:resource="http://purl.org/dc/dcmitype/StillImage" /><dc:title></dc:title></cc:Work></rdf:RDF></metadata><defs
     id="defs67" /><sodipodi:namedview
     pagecolor="#ffffff"
     bordercolor="#666666"
     borderopacity="1"
     objecttolerance="10"
     gridtolerance="10"
     guidetolerance="10"
     inkscape:pageopacity="0"
     inkscape:pageshadow="2"
     inkscape:window-width="690"
     inkscape:window-height="480"
     id="namedview65"
     showgrid="false"
     inkscape:zoom="0.4609375"
     inkscape:cx="256"
     inkscape:cy="256"
     inkscape:window-x="221"
     inkscape:window-y="24"
     inkscape:window-maximized="0"
     inkscape:current-layer="Layer_1" /><g
     id="g3"><g
       id="g5"><g
         id="g7"><path
           d="M326.534,225.782c4.615,0,8.354-3.739,8.354-8.354c0-4.614-3.739-8.354-8.354-8.354h-59.847     c-4.615,0-8.354,3.739-8.354,8.354s3.739,8.354,8.354,8.354H326.534z"
           fill="#FFFFFF"
           id="path9" /><path
           d="M64.375,110.469h262.16c4.615,0,8.354-3.74,8.354-8.354c0-4.615-3.739-8.354-8.354-8.354H64.375     c-4.614,0-8.354,3.739-8.354,8.354C56.021,106.729,59.761,110.469,64.375,110.469z"
           fill="#FFFFFF"
           id="path11" /><path
           d="M64.375,187.345h262.16c4.615,0,8.354-3.739,8.354-8.354c0-4.615-3.739-8.354-8.354-8.354H64.375     c-4.614,0-8.354,3.739-8.354,8.354C56.021,183.605,59.761,187.345,64.375,187.345z"
           fill="#FFFFFF"
           id="path13" /><path
           d="M64.375,225.782h177.107c4.614,0,8.354-3.739,8.354-8.354s-3.74-8.354-8.354-8.354H64.375     c-4.614,0-8.354,3.739-8.354,8.354S59.761,225.782,64.375,225.782z"
           fill="#FFFFFF"
           id="path15" /><path
           d="M326.534,362.824h-85.052c-4.614,0-8.354,3.739-8.354,8.354c0,4.615,3.74,8.354,8.354,8.354h85.052     c4.615,0,8.354-3.739,8.354-8.354C334.888,366.564,331.149,362.824,326.534,362.824z"
           fill="#FFFFFF"
           id="path17" /><path
           d="M326.534,324.388H169.091c-4.614,0-8.354,3.739-8.354,8.354c0,4.614,3.74,8.354,8.354,8.354h157.445     c4.615,0,8.354-3.74,8.354-8.354C334.888,328.127,331.149,324.388,326.534,324.388z"
           fill="#FFFFFF"
           id="path19" /><path
           d="M171.756,255.867c0,4.615,3.74,8.354,8.354,8.354h146.424c4.615,0,8.354-3.739,8.354-8.354     c0-4.615-3.739-8.354-8.354-8.354H180.11C175.497,247.514,171.756,251.253,171.756,255.867z"
           fill="#FFFFFF"
           id="path21" /><path
           d="M64.375,417.969h262.16c4.615,0,8.354-3.74,8.354-8.354c0-4.615-3.739-8.354-8.354-8.354H64.375     c-4.614,0-8.354,3.739-8.354,8.354S59.761,417.969,64.375,417.969z"
           fill="#FFFFFF"
           id="path23" /><path
           d="M64.375,264.221H156c4.614,0,8.354-3.739,8.354-8.354c0-4.615-3.74-8.354-8.354-8.354H64.375     c-4.614,0-8.354,3.739-8.354,8.354C56.021,260.481,59.761,264.221,64.375,264.221z"
           fill="#FFFFFF"
           id="path25" /><path
           d="M503.646,1.578H129.449c-4.614,0-8.354,3.739-8.354,8.354v16.185H8.354C3.74,26.117,0,29.857,0,34.471v467.596     c0,4.615,3.74,8.354,8.354,8.354h374.198c4.615,0,8.354-3.739,8.354-8.354v-16.184h112.74c4.615,0,8.354-3.739,8.354-8.354V9.932     C512,5.317,508.261,1.578,503.646,1.578z M374.198,493.714H16.708V42.825h357.49V493.714z M495.292,469.176H390.906V393.43     h56.724c4.614,0,8.354-3.739,8.354-8.354s-3.74-8.354-8.354-8.354h-56.724v-21.729h56.724c4.614,0,8.354-3.739,8.354-8.354     s-3.74-8.354-8.354-8.354h-56.724v-21.729h56.724c4.614,0,8.354-3.739,8.354-8.354s-3.74-8.354-8.354-8.354h-56.724v-21.737     h7.281c4.615,0,8.354-3.739,8.354-8.354c0-4.614-3.739-8.354-8.354-8.354h-7.281v-21.729h56.724c4.614,0,8.354-3.739,8.354-8.354     c0-4.615-3.74-8.354-8.354-8.354h-56.724v-21.729h56.724c4.614,0,8.354-3.739,8.354-8.354c0-4.615-3.74-8.354-8.354-8.354     h-56.724v-21.729h56.724c4.614,0,8.354-3.739,8.354-8.354c0-4.615-3.74-8.354-8.354-8.354h-56.724v-21.729h56.724     c4.614,0,8.354-3.739,8.354-8.354c0-4.615-3.74-8.354-8.354-8.354h-56.724V85.93h56.724c4.614,0,8.354-3.739,8.354-8.354     c0-4.615-3.74-8.354-8.354-8.354h-56.724V34.471c0-4.615-3.739-8.354-8.354-8.354H137.803v-7.831h357.489V469.176z"
           fill="#FFFFFF"
           id="path27" /><path
           d="M64.375,456.406h163.956c4.614,0,8.354-3.739,8.354-8.354s-3.74-8.354-8.354-8.354H64.375     c-4.614,0-8.354,3.739-8.354,8.354C56.021,452.665,59.761,456.406,64.375,456.406z"
           fill="#FFFFFF"
           id="path29" /><path
           d="M64.375,341.096h74.03c4.614,0,8.354-3.74,8.354-8.354c0-4.615-3.74-8.354-8.354-8.354h-74.03     c-4.614,0-8.354,3.739-8.354,8.354C56.021,337.355,59.761,341.096,64.375,341.096z"
           fill="#FFFFFF"
           id="path31" /><path
           d="M64.375,379.531h147.092c4.614,0,8.354-3.739,8.354-8.354c0-4.615-3.74-8.354-8.354-8.354H64.375     c-4.614,0-8.354,3.739-8.354,8.354C56.021,375.792,59.761,379.531,64.375,379.531z"
           fill="#FFFFFF"
           id="path33" /></g></g></g><g
     id="g35" /><g
     id="g37" /><g
     id="g39" /><g
     id="g41" /><g
     id="g43" /><g
     id="g45" /><g
     id="g47" /><g
     id="g49" /><g
     id="g51" /><g
     id="g53" /><g
     id="g55" /><g
     id="g57" /><g
     id="g59" /><g
     id="g61" /><g
     id="g63" /></svg>